<?xml version="1.0"?>
<svg version="1.1" xmlns="http://www.w3.org/2000/svg" width="400" height="89" style=""><path fill="#c732c4" d="M42.05,60.6q-3,0-5.05-1.375t-2.05-3.475q0-2.65,3.45-5.3q0.6-0.45,0.9-0.45t0.3,0.2q0,0.5-0.8,0.8q-2.8,2.25-2.8,4.55q0,1.65,1.5,2.775t3.75,1.125q4.9,0,9.25-4.7q2.25-2.45,2.25-5.65t-2.4-4.75q-2-1.4-5.4-1.4q-4.9,0-9.85,2.45q-6.1,2.95-11.025,9.175t-4.925,11.975q0,4.55,3.1,7.025t7.7,2.475q5.25,0,10.3-2.55q3.85-2,6.65-5.1q0.8-0.9,1.25-0.9q0.3,0,0.3,0.525t-0.55,1.075q-2.65,2.8-7.65,5.4q-6.15,3.25-12.375,3.25t-9.275-4.1q-2.05-2.7-2.05-6.45q0-1.65,0.4-3.55q1.35-6.4,7.1-12.45q4.15-4.35,9.85-6.775t10.8-2.425q2.7,0,4.7,0.65q5.45,1.7,5.45,6.85q0,3.15-1.85,5.45q-4.6,5.65-10.95,5.65z M57.1085,73.5q1.65,0,4.25-1.75t5.05-4.75q0.6-0.8,0.95-0.8t0.35,0.3t-2.05,2.6q-5,5.5-8.35,5.5q-1.65,0-2.8-0.775t-1.15-2.4t0.85-3.775q1.45-3.4,4.65-8.55q5.85-9.5,8.3-9.5q0.5,0,1.025,0.375t0.575,0.825q-1.15,1.55-4.425,5.95t-4.525,6.325t-1.875,2.875t-0.925,1.475t-0.7,1.375q-0.85,1.7-0.85,3.2t1.65,1.5z M84.467,59.55l0.7-0.15q0.55,0,1.05,0.45t0.5,0.7t-3.1,4.825t-3.1,6.375q0,0.15,0.05,0.3q0.25,1.15,1.1,1.15q2.6,0,9.5-8.6q0.15-0.2,0.35-0.2t0.2,0.375t-0.45,0.975q-6.4,8.55-9.75,8.55q-0.45,0-0.85-0.15q-2.2-0.85-2.2-3.3q0-0.85,0.2-1.7l-3.1,3q-2.95,2.6-4.275,2.6t-2.525-0.85q-1.35-1-1.35-2.65q0-3.65,5.1-8.725t9.35-5.075q1.65,0,2.2,1.15q0.15,0.4,0.25,0.675t0.15,0.275z M69.517,71.85q0,1.8,1.25,1.8q2.9,0,7.9-6.35l5.3-7.3q-0.4-0.7-1.3-0.7q-3.05,0-8.1,4.725t-5.05,7.825z M99.8755,73.75q-1.45,0.85-3.575,0.85t-3.25-1.4t-1.925-4.45q-0.9,0.9-1.25,0.9q-0.25,0-0.25-0.35t0.25-0.6q1.65-2.05,5.6-5.9l6.3-5.9q2.7-2.55,3.2-2.55q1.6,0,1.6,1.2q0,0.6-0.475,1.175t-0.7,0.9t-0.475,0.625q-0.9,1.55-1.825,6.4t-1.425,6.75q4.15-0.05,8.55-5.4q0.5-0.5,0.75-0.5t0.25,0.325t-0.45,0.875q-2.9,3.4-5.4,4.75q-1.5,0.75-3.9,1.25z M93.1255,68.2q0,1.7,1.125,2.775t2.525,1.075t2.15-0.55q1-0.55,1.975-4.6t1.175-7.15l0.2-1.7q-2.75,2.05-5.875,5.3t-3.225,4.3q-0.05,0.3-0.05,0.55z M120.034,73.75q-1.45,0.85-3.575,0.85t-3.25-1.4t-1.925-4.45q-0.9,0.9-1.25,0.9q-0.25,0-0.25-0.35t0.25-0.6q1.65-2.05,5.6-5.9l6.3-5.9q2.7-2.55,3.2-2.55q1.6,0,1.6,1.2q0,0.6-0.475,1.175t-0.7,0.9t-0.475,0.625q-0.9,1.55-1.825,6.4t-1.425,6.75q4.15-0.05,8.55-5.4q0.5-0.5,0.75-0.5t0.25,0.325t-0.45,0.875q-2.9,3.4-5.4,4.75q-1.5,0.75-3.9,1.25z M113.284,68.2q0,1.7,1.125,2.775t2.525,1.075t2.15-0.55q1-0.55,1.975-4.6t1.175-7.15l0.2-1.7q-2.75,2.05-5.875,5.3t-3.225,4.3q-0.05,0.3-0.05,0.55z M143.2675,54.575q0.675,0.475,0.675,1.125t-0.625,1.125t-1.375,0.475t-1.375-0.55t-0.625-1.25q0-1.4,1.9-1.4q0.75,0,1.425,0.475z M132.7925,75.05q-2.55,0-2.55-3.3q0-2.7,2.95-7.475t4.75-4.825q0.5,0,1.125,0.4t0.625,0.8q-0.25,0.35-0.6,0.775t-0.75,0.925t-1.1,1.425t-1.35,1.775q-3.75,4.85-3.75,6.675t1.25,1.825q1.05,0,2.85-1.15q4.2-2.6,6.65-5.7q0.9-1.15,1.225-1.15t0.325,0.4t-1.15,1.6t-1.825,1.9t-0.925,0.925t-0.925,0.85t-1.025,0.875t-1,0.75t-1.15,0.725t-1.15,0.525q-1.05,0.45-2.5,0.45z M148.301,75.15q-0.55,0-1-0.15q-3.2-0.9-3.2-3.6q0-3.5,4.4-8.1t7.9-4.6q1.15,0,1.875,0.625t0.725,1.7t-0.65,2.25t-1.95,1.175t-1.3-0.8q0-0.55,0.675-1.675t0.675-1.2t-0.15-0.075q-1.4,0.15-3.825,2t-3.325,3.1l-1.95,2.85q-0.5,0.8-0.725,1.9t-0.225,1.65t0.625,1.25t1.775,0.7q2.5,0,6.2-2.925t5.7-5.575q0.25-0.3,0.6-0.3t0.35,0.2t-0.25,0.5q-2.75,3.65-6.575,6.375t-6.375,2.725z M193.368,50.05q0,1.55-0.9,1.55q-0.25,0-0.5-0.4q-0.45-0.8-1.5-0.8q-2.3,0-4.3,3.3q-0.4,0.65-2.5,4.7l0.6,0q5.45,0,7.25-0.15q0.2,0.05,0.2,0.2q0,0.4-3.55,1.1q-3.35,0.55-5.5,0.95q-1.55,3.2-3.75,7.6q-4.5,8.4-5.95,10.45q-4.35,6.2-8.5,6.2q-1.45,0-2.525-1.225t-1.125-2.725q0.15-0.6,0.45-0.6q0.15,0,0.2,0.35q0.3,1.3,1,2t1.45,0.7q4.25,0,7.75-5.25q2-3,5.45-10.8l2.7-6.5q-5-0.05-5-1.2q0-0.5,0.475-0.85t0.825-0.35l4.7,0.1q4.9-10.9,9-10.9q1.55,0,3.15,1.5q0.4,0.4,0.4,1.05z M203.8765,59.55l0.7-0.15q0.55,0,1.05,0.45t0.5,0.7t-3.1,4.825t-3.1,6.375q0,0.15,0.05,0.3q0.25,1.15,1.1,1.15q2.6,0,9.5-8.6q0.15-0.2,0.35-0.2t0.2,0.375t-0.45,0.975q-6.4,8.55-9.75,8.55q-0.45,0-0.85-0.15q-2.2-0.85-2.2-3.3q0-0.85,0.2-1.7l-3.1,3q-2.95,2.6-4.275,2.6t-2.525-0.85q-1.35-1-1.35-2.65q0-3.65,5.1-8.725t9.35-5.075q1.65,0,2.2,1.15q0.15,0.4,0.25,0.675t0.15,0.275z M188.9265,71.85q0,1.8,1.25,1.8q2.9,0,7.9-6.35l5.3-7.3q-0.4-0.7-1.3-0.7q-3.05,0-8.1,4.725t-5.05,7.825z M219.285,73.75q-1.45,0.85-3.575,0.85t-3.25-1.4t-1.925-4.45q-0.9,0.9-1.25,0.9q-0.25,0-0.25-0.35t0.25-0.6q1.65-2.05,5.6-5.9l6.3-5.9q2.7-2.55,3.2-2.55q1.6,0,1.6,1.2q0,0.6-0.475,1.175t-0.7,0.9t-0.475,0.625q-0.9,1.55-1.825,6.4t-1.425,6.75q4.15-0.05,8.55-5.4q0.5-0.5,0.75-0.5t0.25,0.325t-0.45,0.875q-2.9,3.4-5.4,4.75q-1.5,0.75-3.9,1.25z M212.535,68.2q0,1.7,1.125,2.775t2.525,1.075t2.15-0.55q1-0.55,1.975-4.6t1.175-7.15l0.2-1.7q-2.75,2.05-5.875,5.3t-3.225,4.3q-0.05,0.3-0.05,0.55z M242.0935,74.3q-2.95,0-2.95-3.45q0-1.95,1.375-4.325t3.375-5.575q-6.4,3.2-11.6,9.45q-2.9,4.35-3.4,4.35q-1.45,0-1.45-0.85q0-0.45,0.6-1.6q4.85-8.65,7.35-12.65q5.95-9.55,8.4-10.35q0.1-0.05,0.2-0.05q0.65,0,0.9,1.05q-0.15,1.05-5.2,7.6q-5.25,6.65-5.95,8.7q1.85-1.35,6.45-4.55q4.95-3.45,6.55-3.45t1.6,1.25q0,0.2-0.025,0.275t-3.475,4.725t-3.45,6.85q0,1.15,0.85,1.15q2.7-0.1,8.1-6.5q0.45-0.45,0.675-0.45t0.225,0.3q0,1-4.95,5.4q-3.1,2.7-4.2,2.7z M263.527,54.575q0.675,0.475,0.675,1.125t-0.625,1.125t-1.375,0.475t-1.375-0.55t-0.625-1.25q0-1.4,1.9-1.4q0.75,0,1.425,0.475z M253.052,75.05q-2.55,0-2.55-3.3q0-2.7,2.95-7.475t4.75-4.825q0.5,0,1.125,0.4t0.625,0.8q-0.25,0.35-0.6,0.775t-0.75,0.925t-1.1,1.425t-1.35,1.775q-3.75,4.85-3.75,6.675t1.25,1.825q1.05,0,2.85-1.15q4.2-2.6,6.65-5.7q0.9-1.15,1.225-1.15t0.325,0.4t-1.15,1.6t-1.825,1.9t-0.925,0.925t-0.925,0.85t-1.025,0.875t-1,0.75t-1.15,0.725t-1.15,0.525q-1.05,0.45-2.5,0.45z M277.8105,63.9q0,1.75-3.35,5.85q-3.95,4.85-6.75,4.85l-0.8,0q-1.3,0-2.05-1.35q-0.6-0.95-0.6-2.1q0-3,4.375-8.425t7.075-5.425q2.55,0,2.55,2.7q0,0.7-0.25,1.8q0.05,0.15,0.95,0.15t2.75-0.95q-0.05,0.85-3.95,2.45q0.05,0.2,0.05,0.45z M274.5605,61.3q-1.7,0-4.825,4t-3.125,5.9t1.2,1.9q2.15,0,5.45-3.9t3.3-5.6q-0.8-0.45-2-2.3z M289.069,58.7q1.35,0,1.35,1.05q0,0.3-0.15,0.6q-4.5,6.25-5.4,9.45q11.65-11.65,14.15-11.65q0.25-0.05,0.45-0.05q1.4,0,1.4,1.25q0,0.25-0.1,0.5t-2,2.7q-2.2,2.6-3.725,5t-1.525,4t0.7,1.6q2.2,0,7.65-6.05q0.1-0.1,0.35-0.45q0.75-0.9,0.9-0.9t0.15,0.5t-0.7,1.3q-6.2,7.05-8.8,7.05q-2.45,0-2.45-2.7t2-6.2l3.2-5.2q-3.4,2.5-6.05,5.475t-4.825,5.775t-2.525,2.8q-0.75,0-1.175-0.625t-0.425-1.55t0.65-2.475t1.65-3.75l-3,3.15q-1.1,1.1-1.375,1.1t-0.275-0.325t0.4-0.725q1.85-1.85,3.2-3.55q1.3-1.7,5.35-6.5q0.45-0.6,0.95-0.6z M335.586,58.8q0-0.3,0.3-0.3q0.9,0,1.4,1.1q0.6,0.95,0.6,3.3q0,3.6-3.15,7.375t-6.8,3.775q-1.75,0-2.825-1.7t-1.075-3.5t0.8-4.4q-1.45,1.45-4.25,4.975t-3.8,5.175q-0.5,0-1.375-0.55t-0.875-1.05q0-1.2,3.05-7.925t4.55-6.725q0.55,0,1,0.525t0.45,0.8t-2.725,5.15t-2.675,5.875q4.75-5.75,5.05-6.1q4.85-5.6,6.35-5.6q0.55,0,1.075,0.475t0.525,0.85t-1.4,2.225t-2.375,3.625t-0.975,3.575q0,3.15,2.1,3.15l0.65,0q2.7,0,4.925-4.125t2.225-6.625q0-2-0.65-3.1q-0.1-0.1-0.1-0.25z M356.7445,59.55l0.7-0.15q0.55,0,1.05,0.45t0.5,0.7t-3.1,4.825t-3.1,6.375q0,0.15,0.05,0.3q0.25,1.15,1.1,1.15q2.6,0,9.5-8.6q0.15-0.2,0.35-0.2t0.2,0.375t-0.45,0.975q-6.4,8.55-9.75,8.55q-0.45,0-0.85-0.15q-2.2-0.85-2.2-3.3q0-0.85,0.2-1.7l-3.1,3q-2.95,2.6-4.275,2.6t-2.525-0.85q-1.35-1-1.35-2.65q0-3.65,5.1-8.725t9.35-5.075q1.65,0,2.2,1.15q0.15,0.4,0.25,0.675t0.15,0.275z M341.7945,71.85q0,1.8,1.25,1.8q2.9,0,7.9-6.35l5.3-7.3q-0.4-0.7-1.3-0.7q-3.05,0-8.1,4.725t-5.05,7.825z M373.153,74.75q-3.75,0-3.75-4.15q0-2.1,1.1-4.6t2.4-4.2q-0.25,0.05-0.65,0.05q-1.2,0-2-1.7l-3.7,4.8q-3.1,3.85-3.6,3.85q-0.25,0-0.25-0.2q0-0.5,0.85-1.45q4.35-5.05,6.15-8.55q1.15-4.35,2.9-4.35q1.15,0,1.15,1t-1.25,2.55l-1.2,1.6q0,1.05,1.55,1.05q0.9,0,2-0.65l1.3-0.8q0.1-0.05,0.5-0.05t0.85,0.5t0.3,0.9l-3.45,4.35q-3.2,4.1-3.2,6.475t2.2,2.375q2.3,0,5.65-2.45q2-1.45,3.65-3.25q1.55-1.8,1.7-1.8q0.35,0,0.35,0.375t-0.45,0.875l-1.6,1.8q-1.35,1.4-3,2.7q-3.95,2.95-6.5,2.95z M387.4115,75.15q-0.55,0-1-0.15q-3.2-0.9-3.2-3.6q0-3.5,4.4-8.1t7.9-4.6q1.15,0,1.875,0.625t0.725,1.525q0,2.8-4.225,5.35t-6.875,2.55q-0.4,0-0.7-0.1q-0.75,1.35-0.75,2.85q0,2.6,2.475,2.6t6.425-3.35q3.05-2.45,5.2-5.2q0.45-0.6,0.775-0.6t0.325,0.3t-0.4,0.85q-2.7,3.55-6.5,6.3t-6.45,2.75z M396.8615,60.75q0-0.6-1.275-0.6t-3.625,1.95q-3.15,2.6-4.9,5.45q0.3,0.1,0.65,0.1q1.9,0,5.075-2.025t3.975-4.425q0.1-0.25,0.1-0.45z"/><path fill="#" d=""/></svg>
